<?xml version="1.0" encoding="UTF-8" standalone="no"?>
<!DOCTYPE svg PUBLIC "-//W3C//DTD SVG 1.1//EN"
 "http://www.w3.org/Graphics/SVG/1.1/DTD/svg11.dtd">
<!-- Generated by graphviz version 2.38.0 (20140413.2041)
 -->
<!-- Title: G Pages: 1 -->
<svg width="856pt" height="626pt"
 viewBox="0.00 0.00 856.20 625.90" xmlns="http://www.w3.org/2000/svg" xmlns:xlink="http://www.w3.org/1999/xlink">
<g id="graph0" class="graph" transform="scale(1 1) rotate(0) translate(21.6 604.304)">
<title>G</title>
<polygon fill="#111111" stroke="none" points="-21.6,21.6 -21.6,-604.304 834.6,-604.304 834.6,21.6 -21.6,21.6"/>
<!-- index.js -->
<g id="node1" class="node"><title>index.js</title>
<path fill="none" stroke="#c6c5fe" d="M57.3333,-323.704C57.3333,-323.704 7.66667,-323.704 7.66667,-323.704 3.83333,-323.704 0,-319.871 0,-316.037 0,-316.037 0,-308.371 0,-308.371 0,-304.537 3.83333,-300.704 7.66667,-300.704 7.66667,-300.704 57.3333,-300.704 57.3333,-300.704 61.1667,-300.704 65,-304.537 65,-308.371 65,-308.371 65,-316.037 65,-316.037 65,-319.871 61.1667,-323.704 57.3333,-323.704"/>
<text text-anchor="middle" x="32.5" y="-308.504" font-family="Arial" font-size="14.00" fill="#c6c5fe">index.js</text>
</g>
<!-- settings.js -->
<g id="node2" class="node"><title>settings.js</title>
<path fill="none" stroke="#cfffac" d="M784.333,-304.704C784.333,-304.704 719.667,-304.704 719.667,-304.704 715.833,-304.704 712,-300.871 712,-297.037 712,-297.037 712,-289.371 712,-289.371 712,-285.537 715.833,-281.704 719.667,-281.704 719.667,-281.704 784.333,-281.704 784.333,-281.704 788.167,-281.704 792,-285.537 792,-289.371 792,-289.371 792,-297.037 792,-297.037 792,-300.871 788.167,-304.704 784.333,-304.704"/>
<text text-anchor="middle" x="752" y="-289.504" font-family="Arial" font-size="14.00" fill="#cfffac">settings.js</text>
</g>
<!-- index.js&#45;&gt;settings.js -->
<g id="edge1" class="edge"><title>index.js&#45;&gt;settings.js</title>
<path fill="none" stroke="#757575" d="M43.1227,-300.281C55.1354,-286.247 77.0395,-263.324 101,-251.204 261.302,-170.117 318.269,-188.296 497,-170.204 566.865,-163.132 591.892,-139.405 655,-170.204 698.553,-191.46 728.118,-243.079 741.974,-272.241"/>
<polygon fill="#757575" stroke="#757575" points="738.88,-273.891 746.218,-281.533 745.247,-270.983 738.88,-273.891"/>
</g>
<!-- src/config.js -->
<g id="node3" class="node"><title>src/config.js</title>
<path fill="none" stroke="#cfffac" d="M614.833,-345.704C614.833,-345.704 537.167,-345.704 537.167,-345.704 533.333,-345.704 529.5,-341.871 529.5,-338.037 529.5,-338.037 529.5,-330.371 529.5,-330.371 529.5,-326.537 533.333,-322.704 537.167,-322.704 537.167,-322.704 614.833,-322.704 614.833,-322.704 618.667,-322.704 622.5,-326.537 622.5,-330.371 622.5,-330.371 622.5,-338.037 622.5,-338.037 622.5,-341.871 618.667,-345.704 614.833,-345.704"/>
<text text-anchor="middle" x="576" y="-330.504" font-family="Arial" font-size="14.00" fill="#cfffac">src/config.js</text>
</g>
<!-- index.js&#45;&gt;src/config.js -->
<g id="edge2" class="edge"><title>index.js&#45;&gt;src/config.js</title>
<path fill="none" stroke="#757575" d="M65.0917,-311.639C76.4169,-311.463 89.2803,-311.291 101,-311.204 165.443,-310.727 181.595,-308.956 246,-311.204 342.141,-314.561 453.796,-323.418 519.192,-329.11"/>
<polygon fill="#757575" stroke="#757575" points="519.013,-332.608 529.281,-329.995 519.625,-325.635 519.013,-332.608"/>
</g>
<!-- src/discord/index.js -->
<g id="node4" class="node"><title>src/discord/index.js</title>
<path fill="none" stroke="#ff6c60" d="M235.333,-482.704C235.333,-482.704 111.667,-482.704 111.667,-482.704 107.833,-482.704 104,-478.871 104,-475.037 104,-475.037 104,-467.371 104,-467.371 104,-463.537 107.833,-459.704 111.667,-459.704 111.667,-459.704 235.333,-459.704 235.333,-459.704 239.167,-459.704 243,-463.537 243,-467.371 243,-467.371 243,-475.037 243,-475.037 243,-478.871 239.167,-482.704 235.333,-482.704"/>
<text text-anchor="middle" x="173.5" y="-467.504" font-family="Arial" font-size="14.00" fill="#ff6c60">src/discord/index.js</text>
</g>
<!-- index.js&#45;&gt;src/discord/index.js -->
<g id="edge3" class="edge"><title>index.js&#45;&gt;src/discord/index.js</title>
<path fill="none" stroke="#757575" d="M37.5206,-323.82C46.0264,-346.974 67.8268,-399.461 101,-432.204 110.37,-441.453 122.382,-449.133 133.875,-455.162"/>
<polygon fill="#757575" stroke="#757575" points="132.406,-458.34 142.921,-459.641 135.513,-452.067 132.406,-458.34"/>
</g>
<!-- src/listeners/index.js -->
<g id="node5" class="node"><title>src/listeners/index.js</title>
<path fill="none" stroke="#c6c5fe" d="M238.333,-105.704C238.333,-105.704 108.667,-105.704 108.667,-105.704 104.833,-105.704 101,-101.871 101,-98.0375 101,-98.0375 101,-90.3708 101,-90.3708 101,-86.5375 104.833,-82.7041 108.667,-82.7041 108.667,-82.7041 238.333,-82.7041 238.333,-82.7041 242.167,-82.7041 246,-86.5375 246,-90.3708 246,-90.3708 246,-98.0375 246,-98.0375 246,-101.871 242.167,-105.704 238.333,-105.704"/>
<text text-anchor="middle" x="173.5" y="-90.5041" font-family="Arial" font-size="14.00" fill="#c6c5fe">src/listeners/index.js</text>
</g>
<!-- index.js&#45;&gt;src/listeners/index.js -->
<g id="edge4" class="edge"><title>index.js&#45;&gt;src/listeners/index.js</title>
<path fill="none" stroke="#757575" d="M34.2383,-300.474C36.9393,-267.452 49.0628,-172.7 101,-120.204 104.68,-116.485 108.932,-113.294 113.492,-110.558"/>
<polygon fill="#757575" stroke="#757575" points="115.315,-113.555 122.571,-105.835 112.085,-107.345 115.315,-113.555"/>
</g>
<!-- src/logging/log.js -->
<g id="node6" class="node"><title>src/logging/log.js</title>
<path fill="none" stroke="#ff6c60" d="M425.833,-383.704C425.833,-383.704 317.167,-383.704 317.167,-383.704 313.333,-383.704 309.5,-379.871 309.5,-376.037 309.5,-376.037 309.5,-368.371 309.5,-368.371 309.5,-364.537 313.333,-360.704 317.167,-360.704 317.167,-360.704 425.833,-360.704 425.833,-360.704 429.667,-360.704 433.5,-364.537 433.5,-368.371 433.5,-368.371 433.5,-376.037 433.5,-376.037 433.5,-379.871 429.667,-383.704 425.833,-383.704"/>
<text text-anchor="middle" x="371.5" y="-368.504" font-family="Arial" font-size="14.00" fill="#ff6c60">src/logging/log.js</text>
</g>
<!-- index.js&#45;&gt;src/logging/log.js -->
<g id="edge5" class="edge"><title>index.js&#45;&gt;src/logging/log.js</title>
<path fill="none" stroke="#757575" d="M48.348,-323.759C61.419,-333.228 81.3774,-346.037 101,-352.204 165.994,-372.631 243.968,-376.32 299.283,-375.686"/>
<polygon fill="#757575" stroke="#757575" points="299.399,-379.185 309.34,-375.521 299.284,-372.186 299.399,-379.185"/>
</g>
<!-- src/minify.js -->
<g id="node7" class="node"><title>src/minify.js</title>
<path fill="none" stroke="#c6c5fe" d="M211.333,-423.704C211.333,-423.704 135.667,-423.704 135.667,-423.704 131.833,-423.704 128,-419.871 128,-416.037 128,-416.037 128,-408.371 128,-408.371 128,-404.537 131.833,-400.704 135.667,-400.704 135.667,-400.704 211.333,-400.704 211.333,-400.704 215.167,-400.704 219,-404.537 219,-408.371 219,-408.371 219,-416.037 219,-416.037 219,-419.871 215.167,-423.704 211.333,-423.704"/>
<text text-anchor="middle" x="173.5" y="-408.504" font-family="Arial" font-size="14.00" fill="#c6c5fe">src/minify.js</text>
</g>
<!-- index.js&#45;&gt;src/minify.js -->
<g id="edge6" class="edge"><title>index.js&#45;&gt;src/minify.js</title>
<path fill="none" stroke="#757575" d="M41.3176,-323.831C52.6939,-339.934 75.2809,-368.982 101,-386.204 107.036,-390.246 113.779,-393.751 120.646,-396.764"/>
<polygon fill="#757575" stroke="#757575" points="119.451,-400.056 130.033,-400.571 122.082,-393.569 119.451,-400.056"/>
</g>
<!-- src/router.js -->
<g id="node8" class="node"><title>src/router.js</title>
<path fill="none" stroke="#c6c5fe" d="M211.333,-343.704C211.333,-343.704 135.667,-343.704 135.667,-343.704 131.833,-343.704 128,-339.871 128,-336.037 128,-336.037 128,-328.371 128,-328.371 128,-324.537 131.833,-320.704 135.667,-320.704 135.667,-320.704 211.333,-320.704 211.333,-320.704 215.167,-320.704 219,-324.537 219,-328.371 219,-328.371 219,-336.037 219,-336.037 219,-339.871 215.167,-343.704 211.333,-343.704"/>
<text text-anchor="middle" x="173.5" y="-328.504" font-family="Arial" font-size="14.00" fill="#c6c5fe">src/router.js</text>
</g>
<!-- index.js&#45;&gt;src/router.js -->
<g id="edge7" class="edge"><title>index.js&#45;&gt;src/router.js</title>
<path fill="none" stroke="#757575" d="M65.0413,-316.742C80.6481,-318.988 99.9388,-321.764 117.849,-324.341"/>
<polygon fill="#757575" stroke="#757575" points="117.514,-327.828 127.91,-325.788 118.511,-320.9 117.514,-327.828"/>
</g>
<!-- src/twitch/index.js -->
<g id="node9" class="node"><title>src/twitch/index.js</title>
<path fill="none" stroke="#c6c5fe" d="M427.333,-263.704C427.333,-263.704 315.667,-263.704 315.667,-263.704 311.833,-263.704 308,-259.871 308,-256.037 308,-256.037 308,-248.371 308,-248.371 308,-244.537 311.833,-240.704 315.667,-240.704 315.667,-240.704 427.333,-240.704 427.333,-240.704 431.167,-240.704 435,-244.537 435,-248.371 435,-248.371 435,-256.037 435,-256.037 435,-259.871 431.167,-263.704 427.333,-263.704"/>
<text text-anchor="middle" x="371.5" y="-248.504" font-family="Arial" font-size="14.00" fill="#c6c5fe">src/twitch/index.js</text>
</g>
<!-- index.js&#45;&gt;src/twitch/index.js -->
<g id="edge8" class="edge"><title>index.js&#45;&gt;src/twitch/index.js</title>
<path fill="none" stroke="#757575" d="M51.9306,-300.564C65.0843,-292.857 83.4785,-283.269 101,-278.204 165.829,-259.465 242.702,-253.566 297.723,-252"/>
<polygon fill="#757575" stroke="#757575" points="297.823,-255.499 307.734,-251.756 297.652,-248.501 297.823,-255.499"/>
</g>
<!-- src/discord/index.js&#45;&gt;settings.js -->
<g id="edge13" class="edge"><title>src/discord/index.js&#45;&gt;settings.js</title>
<path fill="none" stroke="#757575" d="M243.141,-469.438C358.629,-465.424 585.957,-452.741 655,-414.204 696.472,-391.056 726.511,-342.019 741.085,-313.996"/>
<polygon fill="#757575" stroke="#757575" points="744.224,-315.544 745.589,-305.038 737.97,-312.4 744.224,-315.544"/>
</g>
<!-- src/discord/index.js&#45;&gt;src/logging/log.js -->
<g id="edge16" class="edge"><title>src/discord/index.js&#45;&gt;src/logging/log.js</title>
<path fill="none" stroke="#757575" d="M189.88,-459.593C219.306,-441.614 284.51,-408.068 327.986,-388"/>
<polygon fill="#757575" stroke="#757575" points="329.532,-391.142 337.182,-383.812 326.631,-384.772 329.532,-391.142"/>
</g>
<!-- src/discord/commands.js -->
<g id="node12" class="node"><title>src/discord/commands.js</title>
<path fill="none" stroke="#ff6c60" d="M451.833,-542.704C451.833,-542.704 291.167,-542.704 291.167,-542.704 287.333,-542.704 283.5,-538.871 283.5,-535.037 283.5,-535.037 283.5,-527.371 283.5,-527.371 283.5,-523.537 287.333,-519.704 291.167,-519.704 291.167,-519.704 451.833,-519.704 451.833,-519.704 455.667,-519.704 459.5,-523.537 459.5,-527.371 459.5,-527.371 459.5,-535.037 459.5,-535.037 459.5,-538.871 455.667,-542.704 451.833,-542.704"/>
<text text-anchor="middle" x="371.5" y="-527.504" font-family="Arial" font-size="14.00" fill="#ff6c60">src/discord/commands.js</text>
</g>
<!-- src/discord/index.js&#45;&gt;src/discord/commands.js -->
<g id="edge14" class="edge"><title>src/discord/index.js&#45;&gt;src/discord/commands.js</title>
<path fill="none" stroke="#757575" d="M224.073,-482.777C242.13,-489.105 262.818,-496.496 282,-502.204 300.254,-507.636 321.006,-512.398 337.825,-516.86"/>
<polygon fill="#757575" stroke="#757575" points="337.16,-520.307 347.732,-519.602 339.028,-513.561 337.16,-520.307"/>
</g>
<!-- src/logging/warning.js -->
<g id="node13" class="node"><title>src/logging/warning.js</title>
<path fill="none" stroke="#cfffac" d="M644.333,-582.704C644.333,-582.704 507.667,-582.704 507.667,-582.704 503.833,-582.704 500,-578.871 500,-575.037 500,-575.037 500,-567.371 500,-567.371 500,-563.537 503.833,-559.704 507.667,-559.704 507.667,-559.704 644.333,-559.704 644.333,-559.704 648.167,-559.704 652,-563.537 652,-567.371 652,-567.371 652,-575.037 652,-575.037 652,-578.871 648.167,-582.704 644.333,-582.704"/>
<text text-anchor="middle" x="576" y="-567.504" font-family="Arial" font-size="14.00" fill="#cfffac">src/logging/warning.js</text>
</g>
<!-- src/discord/index.js&#45;&gt;src/logging/warning.js -->
<g id="edge17" class="edge"><title>src/discord/index.js&#45;&gt;src/logging/warning.js</title>
<path fill="none" stroke="#757575" d="M185.367,-482.97C203.378,-501.563 241.468,-537.168 282,-552.204 348.638,-576.926 429.606,-580.354 489.526,-578.35"/>
<polygon fill="#757575" stroke="#757575" points="489.852,-581.84 499.707,-577.951 489.577,-574.846 489.852,-581.84"/>
</g>
<!-- src/logging/exception.js -->
<g id="node14" class="node"><title>src/logging/exception.js</title>
<path fill="none" stroke="#cfffac" d="M446.833,-501.704C446.833,-501.704 296.167,-501.704 296.167,-501.704 292.333,-501.704 288.5,-497.871 288.5,-494.037 288.5,-494.037 288.5,-486.371 288.5,-486.371 288.5,-482.537 292.333,-478.704 296.167,-478.704 296.167,-478.704 446.833,-478.704 446.833,-478.704 450.667,-478.704 454.5,-482.537 454.5,-486.371 454.5,-486.371 454.5,-494.037 454.5,-494.037 454.5,-497.871 450.667,-501.704 446.833,-501.704"/>
<text text-anchor="middle" x="371.5" y="-486.504" font-family="Arial" font-size="14.00" fill="#cfffac">src/logging/exception.js</text>
</g>
<!-- src/discord/index.js&#45;&gt;src/logging/exception.js -->
<g id="edge15" class="edge"><title>src/discord/index.js&#45;&gt;src/logging/exception.js</title>
<path fill="none" stroke="#757575" d="M243.051,-477.849C254.322,-478.942 266.165,-480.09 277.904,-481.228"/>
<polygon fill="#757575" stroke="#757575" points="277.886,-484.743 288.177,-482.224 278.561,-477.775 277.886,-484.743"/>
</g>
<!-- src/listeners/index.js&#45;&gt;src/twitch/index.js -->
<g id="edge20" class="edge"><title>src/listeners/index.js&#45;&gt;src/twitch/index.js</title>
<path fill="none" stroke="#757575" d="M188.912,-105.822C222.752,-133.101 307.486,-201.407 348.103,-234.149"/>
<polygon fill="#757575" stroke="#757575" points="346.085,-237.018 356.067,-240.569 350.478,-231.568 346.085,-237.018"/>
</g>
<!-- src/listeners/twitch.js -->
<g id="node15" class="node"><title>src/listeners/twitch.js</title>
<path fill="none" stroke="#c6c5fe" d="M436.833,-105.704C436.833,-105.704 306.167,-105.704 306.167,-105.704 302.333,-105.704 298.5,-101.871 298.5,-98.0375 298.5,-98.0375 298.5,-90.3708 298.5,-90.3708 298.5,-86.5375 302.333,-82.7041 306.167,-82.7041 306.167,-82.7041 436.833,-82.7041 436.833,-82.7041 440.667,-82.7041 444.5,-86.5375 444.5,-90.3708 444.5,-90.3708 444.5,-98.0375 444.5,-98.0375 444.5,-101.871 440.667,-105.704 436.833,-105.704"/>
<text text-anchor="middle" x="371.5" y="-90.5041" font-family="Arial" font-size="14.00" fill="#c6c5fe">src/listeners/twitch.js</text>
</g>
<!-- src/listeners/index.js&#45;&gt;src/listeners/twitch.js -->
<g id="edge18" class="edge"><title>src/listeners/index.js&#45;&gt;src/listeners/twitch.js</title>
<path fill="none" stroke="#757575" d="M246.092,-94.2041C259.82,-94.2041 274.295,-94.2041 288.325,-94.2041"/>
<polygon fill="#757575" stroke="#757575" points="288.445,-97.7042 298.445,-94.2041 288.445,-90.7042 288.445,-97.7042"/>
</g>
<!-- src/listeners/websocket.js -->
<g id="node16" class="node"><title>src/listeners/websocket.js</title>
<path fill="none" stroke="#cfffac" d="M453.333,-64.7041C453.333,-64.7041 289.667,-64.7041 289.667,-64.7041 285.833,-64.7041 282,-60.8708 282,-57.0375 282,-57.0375 282,-49.3708 282,-49.3708 282,-45.5375 285.833,-41.7041 289.667,-41.7041 289.667,-41.7041 453.333,-41.7041 453.333,-41.7041 457.167,-41.7041 461,-45.5375 461,-49.3708 461,-49.3708 461,-57.0375 461,-57.0375 461,-60.8708 457.167,-64.7041 453.333,-64.7041"/>
<text text-anchor="middle" x="371.5" y="-49.5041" font-family="Arial" font-size="14.00" fill="#cfffac">src/listeners/websocket.js</text>
</g>
<!-- src/listeners/index.js&#45;&gt;src/listeners/websocket.js -->
<g id="edge19" class="edge"><title>src/listeners/index.js&#45;&gt;src/listeners/websocket.js</title>
<path fill="none" stroke="#757575" d="M229.619,-82.6742C253.204,-77.7406 280.916,-71.9436 305.494,-66.8022"/>
<polygon fill="#757575" stroke="#757575" points="306.384,-70.1919 315.456,-64.7184 304.951,-63.3402 306.384,-70.1919"/>
</g>
<!-- src/websocket.js -->
<g id="node17" class="node"><title>src/websocket.js</title>
<path fill="none" stroke="#cfffac" d="M805.333,-24.7041C805.333,-24.7041 698.667,-24.7041 698.667,-24.7041 694.833,-24.7041 691,-20.8708 691,-17.0375 691,-17.0375 691,-9.37079 691,-9.37079 691,-5.53746 694.833,-1.70413 698.667,-1.70413 698.667,-1.70413 805.333,-1.70413 805.333,-1.70413 809.167,-1.70413 813,-5.53746 813,-9.37079 813,-9.37079 813,-17.0375 813,-17.0375 813,-20.8708 809.167,-24.7041 805.333,-24.7041"/>
<text text-anchor="middle" x="752" y="-9.50413" font-family="Arial" font-size="14.00" fill="#cfffac">src/websocket.js</text>
</g>
<!-- src/listeners/index.js&#45;&gt;src/websocket.js -->
<g id="edge21" class="edge"><title>src/listeners/index.js&#45;&gt;src/websocket.js</title>
<path fill="none" stroke="#757575" d="M189.099,-82.6601C208.847,-67.812 245.784,-42.6895 282,-32.2041 418.748,7.38762 587.271,1.79092 680.516,-5.75679"/>
<polygon fill="#757575" stroke="#757575" points="680.422,-9.2611 690.68,-6.61157 681.009,-2.28573 680.422,-9.2611"/>
</g>
<!-- src/logging/log.js&#45;&gt;settings.js -->
<g id="edge24" class="edge"><title>src/logging/log.js&#45;&gt;settings.js</title>
<path fill="none" stroke="#757575" d="M433.653,-376.93C492.005,-379.454 581.636,-378.097 655,-354.204 683.042,-345.072 711.038,-325.834 729.498,-311.39"/>
<polygon fill="#757575" stroke="#757575" points="731.912,-313.94 737.513,-304.947 727.526,-308.484 731.912,-313.94"/>
</g>
<!-- src/logging/log.js&#45;&gt;src/discord/index.js -->
<g id="edge25" class="edge"><title>src/logging/log.js&#45;&gt;src/discord/index.js</title>
<path fill="none" stroke="#757575" d="M354.926,-383.934C325.387,-401.954 260.304,-435.43 216.925,-455.449"/>
<polygon fill="#757575" stroke="#757575" points="215.399,-452.298 207.749,-459.627 218.3,-458.669 215.399,-452.298"/>
</g>
<!-- src/minify.js&#45;&gt;settings.js -->
<g id="edge26" class="edge"><title>src/minify.js&#45;&gt;settings.js</title>
<path fill="none" stroke="#757575" d="M219.127,-418.633C306.74,-429.274 505.697,-443.571 655,-380.204 689.212,-365.684 719.253,-333.664 736.256,-312.783"/>
<polygon fill="#757575" stroke="#757575" points="739.062,-314.877 742.517,-304.861 733.57,-310.536 739.062,-314.877"/>
</g>
<!-- src/minify.js&#45;&gt;src/logging/log.js -->
<g id="edge27" class="edge"><title>src/minify.js&#45;&gt;src/logging/log.js</title>
<path fill="none" stroke="#757575" d="M219.466,-403.027C244.43,-397.933 275.962,-391.498 303.751,-385.826"/>
<polygon fill="#757575" stroke="#757575" points="304.702,-389.204 313.8,-383.775 303.303,-382.346 304.702,-389.204"/>
</g>
<!-- src/router.js&#45;&gt;src/logging/log.js -->
<g id="edge31" class="edge"><title>src/router.js&#45;&gt;src/logging/log.js</title>
<path fill="none" stroke="#757575" d="M219.466,-341.381C244.43,-346.475 275.962,-352.911 303.751,-358.582"/>
<polygon fill="#757575" stroke="#757575" points="303.303,-362.062 313.8,-360.633 304.702,-355.204 303.303,-362.062"/>
</g>
<!-- src/twitch/index.js&#45;&gt;settings.js -->
<g id="edge33" class="edge"><title>src/twitch/index.js&#45;&gt;settings.js</title>
<path fill="none" stroke="#757575" d="M389.256,-240.675C412.299,-225.591 455.631,-199.935 497,-190.204 565.357,-174.125 590.606,-162.195 655,-190.204 693.76,-207.063 723.956,-248.137 739.475,-273.024"/>
<polygon fill="#757575" stroke="#757575" points="736.534,-274.925 744.691,-281.685 742.53,-271.313 736.534,-274.925"/>
</g>
<!-- src/twitch/index.js&#45;&gt;src/config.js -->
<g id="edge34" class="edge"><title>src/twitch/index.js&#45;&gt;src/config.js</title>
<path fill="none" stroke="#757575" d="M427.109,-263.734C438.738,-267.408 450.628,-272.148 461,-278.204 480.27,-289.457 477.603,-302.171 497,-313.204 504.02,-317.197 511.828,-320.456 519.715,-323.109"/>
<polygon fill="#757575" stroke="#757575" points="518.74,-326.471 529.327,-326.054 520.791,-319.778 518.74,-326.471"/>
</g>
<!-- src/twitch/chat.js -->
<g id="node20" class="node"><title>src/twitch/chat.js</title>
<path fill="none" stroke="#c6c5fe" d="M627.833,-304.704C627.833,-304.704 524.167,-304.704 524.167,-304.704 520.333,-304.704 516.5,-300.871 516.5,-297.037 516.5,-297.037 516.5,-289.371 516.5,-289.371 516.5,-285.537 520.333,-281.704 524.167,-281.704 524.167,-281.704 627.833,-281.704 627.833,-281.704 631.667,-281.704 635.5,-285.537 635.5,-289.371 635.5,-289.371 635.5,-297.037 635.5,-297.037 635.5,-300.871 631.667,-304.704 627.833,-304.704"/>
<text text-anchor="middle" x="576" y="-289.504" font-family="Arial" font-size="14.00" fill="#c6c5fe">src/twitch/chat.js</text>
</g>
<!-- src/twitch/index.js&#45;&gt;src/twitch/chat.js -->
<g id="edge35" class="edge"><title>src/twitch/index.js&#45;&gt;src/twitch/chat.js</title>
<path fill="none" stroke="#757575" d="M429.446,-263.734C453.922,-268.69 482.7,-274.516 508.177,-279.675"/>
<polygon fill="#757575" stroke="#757575" points="507.635,-283.136 518.13,-281.69 509.024,-276.275 507.635,-283.136"/>
</g>
<!-- src/twitch/pubsub.js -->
<g id="node21" class="node"><title>src/twitch/pubsub.js</title>
<path fill="none" stroke="#cfffac" d="M638.333,-222.704C638.333,-222.704 513.667,-222.704 513.667,-222.704 509.833,-222.704 506,-218.871 506,-215.037 506,-215.037 506,-207.371 506,-207.371 506,-203.537 509.833,-199.704 513.667,-199.704 513.667,-199.704 638.333,-199.704 638.333,-199.704 642.167,-199.704 646,-203.537 646,-207.371 646,-207.371 646,-215.037 646,-215.037 646,-218.871 642.167,-222.704 638.333,-222.704"/>
<text text-anchor="middle" x="576" y="-207.504" font-family="Arial" font-size="14.00" fill="#cfffac">src/twitch/pubsub.js</text>
</g>
<!-- src/twitch/index.js&#45;&gt;src/twitch/pubsub.js -->
<g id="edge36" class="edge"><title>src/twitch/index.js&#45;&gt;src/twitch/pubsub.js</title>
<path fill="none" stroke="#757575" d="M429.446,-240.674C453.922,-235.719 482.7,-229.892 508.177,-224.734"/>
<polygon fill="#757575" stroke="#757575" points="509.024,-228.133 518.13,-222.718 507.635,-221.273 509.024,-228.133"/>
</g>
<!-- src/twitch/webhooks.js -->
<g id="node22" class="node"><title>src/twitch/webhooks.js</title>
<path fill="none" stroke="#c6c5fe" d="M647.333,-263.704C647.333,-263.704 504.667,-263.704 504.667,-263.704 500.833,-263.704 497,-259.871 497,-256.037 497,-256.037 497,-248.371 497,-248.371 497,-244.537 500.833,-240.704 504.667,-240.704 504.667,-240.704 647.333,-240.704 647.333,-240.704 651.167,-240.704 655,-244.537 655,-248.371 655,-248.371 655,-256.037 655,-256.037 655,-259.871 651.167,-263.704 647.333,-263.704"/>
<text text-anchor="middle" x="576" y="-248.504" font-family="Arial" font-size="14.00" fill="#c6c5fe">src/twitch/webhooks.js</text>
</g>
<!-- src/twitch/index.js&#45;&gt;src/twitch/webhooks.js -->
<g id="edge37" class="edge"><title>src/twitch/index.js&#45;&gt;src/twitch/webhooks.js</title>
<path fill="none" stroke="#757575" d="M435.185,-252.204C451.498,-252.204 469.381,-252.204 486.746,-252.204"/>
<polygon fill="#757575" stroke="#757575" points="486.894,-255.704 496.894,-252.204 486.894,-248.704 486.894,-255.704"/>
</g>
<!-- package.json -->
<g id="node10" class="node"><title>package.json</title>
<path fill="none" stroke="#cfffac" d="M618.833,-502.704C618.833,-502.704 533.167,-502.704 533.167,-502.704 529.333,-502.704 525.5,-498.871 525.5,-495.037 525.5,-495.037 525.5,-487.371 525.5,-487.371 525.5,-483.537 529.333,-479.704 533.167,-479.704 533.167,-479.704 618.833,-479.704 618.833,-479.704 622.667,-479.704 626.5,-483.537 626.5,-487.371 626.5,-487.371 626.5,-495.037 626.5,-495.037 626.5,-498.871 622.667,-502.704 618.833,-502.704"/>
<text text-anchor="middle" x="576" y="-487.504" font-family="Arial" font-size="14.00" fill="#cfffac">package.json</text>
</g>
<!-- src/deferred.js -->
<g id="node11" class="node"><title>src/deferred.js</title>
<path fill="none" stroke="#cfffac" d="M798.833,-106.704C798.833,-106.704 705.167,-106.704 705.167,-106.704 701.333,-106.704 697.5,-102.871 697.5,-99.0375 697.5,-99.0375 697.5,-91.3708 697.5,-91.3708 697.5,-87.5375 701.333,-83.7041 705.167,-83.7041 705.167,-83.7041 798.833,-83.7041 798.833,-83.7041 802.667,-83.7041 806.5,-87.5375 806.5,-91.3708 806.5,-91.3708 806.5,-99.0375 806.5,-99.0375 806.5,-102.871 802.667,-106.704 798.833,-106.704"/>
<text text-anchor="middle" x="752" y="-91.5041" font-family="Arial" font-size="14.00" fill="#cfffac">src/deferred.js</text>
</g>
<!-- src/discord/commands.js&#45;&gt;settings.js -->
<g id="edge10" class="edge"><title>src/discord/commands.js&#45;&gt;settings.js</title>
<path fill="none" stroke="#757575" d="M425.195,-542.75C486.282,-552.983 587.225,-559.817 655,-512.204 722.156,-465.026 742.841,-360.106 748.78,-314.765"/>
<polygon fill="#757575" stroke="#757575" points="752.256,-315.175 749.966,-304.83 745.305,-314.345 752.256,-315.175"/>
</g>
<!-- src/discord/commands.js&#45;&gt;src/discord/index.js -->
<g id="edge11" class="edge"><title>src/discord/commands.js&#45;&gt;src/discord/index.js</title>
<path fill="none" stroke="#757575" d="M283.363,-520.607C282.907,-520.473 282.453,-520.339 282,-520.204 252.208,-511.338 218.78,-498.413 197.226,-487.634"/>
<polygon fill="#757575" stroke="#757575" points="198.689,-484.448 188.214,-482.855 195.409,-490.633 198.689,-484.448"/>
</g>
<!-- src/discord/commands.js&#45;&gt;package.json -->
<g id="edge9" class="edge"><title>src/discord/commands.js&#45;&gt;package.json</title>
<path fill="none" stroke="#757575" d="M430.8,-519.688C457.323,-514.449 488.672,-508.257 515.355,-502.986"/>
<polygon fill="#757575" stroke="#757575" points="516.201,-506.386 525.333,-501.015 514.845,-499.519 516.201,-506.386"/>
</g>
<!-- src/discord/commands.js&#45;&gt;src/logging/warning.js -->
<g id="edge12" class="edge"><title>src/discord/commands.js&#45;&gt;src/logging/warning.js</title>
<path fill="none" stroke="#757575" d="M430.8,-542.72C454.522,-547.406 482.105,-552.854 506.757,-557.724"/>
<polygon fill="#757575" stroke="#757575" points="506.273,-561.196 516.761,-559.7 507.629,-554.329 506.273,-561.196"/>
</g>
<!-- src/listeners/twitch.js&#45;&gt;settings.js -->
<g id="edge22" class="edge"><title>src/listeners/twitch.js&#45;&gt;settings.js</title>
<path fill="none" stroke="#757575" d="M444.65,-82.8884C505.614,-77.2135 592.707,-78.6187 655,-119.204 709.725,-154.859 736.01,-232.934 745.991,-271.192"/>
<polygon fill="#757575" stroke="#757575" points="742.687,-272.409 748.482,-281.278 749.482,-270.731 742.687,-272.409"/>
</g>
<!-- src/notifications.js -->
<g id="node18" class="node"><title>src/notifications.js</title>
<path fill="none" stroke="#c6c5fe" d="M632.833,-65.7041C632.833,-65.7041 519.167,-65.7041 519.167,-65.7041 515.333,-65.7041 511.5,-61.8708 511.5,-58.0375 511.5,-58.0375 511.5,-50.3708 511.5,-50.3708 511.5,-46.5375 515.333,-42.7041 519.167,-42.7041 519.167,-42.7041 632.833,-42.7041 632.833,-42.7041 636.667,-42.7041 640.5,-46.5375 640.5,-50.3708 640.5,-50.3708 640.5,-58.0375 640.5,-58.0375 640.5,-61.8708 636.667,-65.7041 632.833,-65.7041"/>
<text text-anchor="middle" x="576" y="-50.5041" font-family="Arial" font-size="14.00" fill="#c6c5fe">src/notifications.js</text>
</g>
<!-- src/listeners/twitch.js&#45;&gt;src/notifications.js -->
<g id="edge23" class="edge"><title>src/listeners/twitch.js&#45;&gt;src/notifications.js</title>
<path fill="none" stroke="#757575" d="M430.8,-82.6881C454.522,-78.0023 482.105,-72.5538 506.757,-67.6843"/>
<polygon fill="#757575" stroke="#757575" points="507.629,-71.0797 516.761,-65.7081 506.273,-64.2124 507.629,-71.0797"/>
</g>
<!-- src/notifications.js&#45;&gt;src/deferred.js -->
<g id="edge28" class="edge"><title>src/notifications.js&#45;&gt;src/deferred.js</title>
<path fill="none" stroke="#757575" d="M625.932,-65.734C646.497,-70.5799 670.598,-76.2589 692.125,-81.3312"/>
<polygon fill="#757575" stroke="#757575" points="691.598,-84.8029 702.134,-83.6898 693.204,-77.9895 691.598,-84.8029"/>
</g>
<!-- src/notifications.js&#45;&gt;src/websocket.js -->
<g id="edge30" class="edge"><title>src/notifications.js&#45;&gt;src/websocket.js</title>
<path fill="none" stroke="#757575" d="M625.932,-42.6742C646.497,-37.8283 670.598,-32.1494 692.125,-27.077"/>
<polygon fill="#757575" stroke="#757575" points="693.204,-30.4187 702.134,-24.7184 691.598,-23.6053 693.204,-30.4187"/>
</g>
<!-- src/queue.js -->
<g id="node19" class="node"><title>src/queue.js</title>
<path fill="none" stroke="#cfffac" d="M791.333,-65.7041C791.333,-65.7041 712.667,-65.7041 712.667,-65.7041 708.833,-65.7041 705,-61.8708 705,-58.0375 705,-58.0375 705,-50.3708 705,-50.3708 705,-46.5375 708.833,-42.7041 712.667,-42.7041 712.667,-42.7041 791.333,-42.7041 791.333,-42.7041 795.167,-42.7041 799,-46.5375 799,-50.3708 799,-50.3708 799,-58.0375 799,-58.0375 799,-61.8708 795.167,-65.7041 791.333,-65.7041"/>
<text text-anchor="middle" x="752" y="-50.5041" font-family="Arial" font-size="14.00" fill="#cfffac">src/queue.js</text>
</g>
<!-- src/notifications.js&#45;&gt;src/queue.js -->
<g id="edge29" class="edge"><title>src/notifications.js&#45;&gt;src/queue.js</title>
<path fill="none" stroke="#757575" d="M640.803,-54.2041C658.393,-54.2041 677.349,-54.2041 694.495,-54.2041"/>
<polygon fill="#757575" stroke="#757575" points="694.908,-57.7042 704.908,-54.2041 694.908,-50.7042 694.908,-57.7042"/>
</g>
<!-- src/twitch/chat.js&#45;&gt;settings.js -->
<g id="edge32" class="edge"><title>src/twitch/chat.js&#45;&gt;settings.js</title>
<path fill="none" stroke="#757575" d="M635.908,-293.204C657.331,-293.204 681.3,-293.204 701.795,-293.204"/>
<polygon fill="#757575" stroke="#757575" points="701.856,-296.704 711.856,-293.204 701.856,-289.704 701.856,-296.704"/>
</g>
<!-- src/twitch/webhooks.js&#45;&gt;settings.js -->
<g id="edge38" class="edge"><title>src/twitch/webhooks.js&#45;&gt;settings.js</title>
<path fill="none" stroke="#757575" d="M625.932,-263.734C649.679,-269.33 678.14,-276.036 701.908,-281.637"/>
<polygon fill="#757575" stroke="#757575" points="701.244,-285.076 711.78,-283.963 702.849,-278.262 701.244,-285.076"/>
</g>
</g>
</svg>
